<svg xmlns="http://www.w3.org/2000/svg" width="451.638" height="475.952" viewBox="0 0 451.638 475.952">
  <g id="checked-buttom" transform="translate(0.5 0.498)">
    <path id="Tracé_1" data-name="Tracé 1" d="M225.319,0C100.858,0,0,106.347,0,237.462,0,368.656,100.858,474.954,225.319,474.954S450.638,368.671,450.638,237.462C450.638,106.347,349.765,0,225.319,0ZM191.486,379.016a12.459,12.459,0,0,1-18.212,0l-4.036-4.254h0l-4.393-4.6-18.852-19.872-.3-.455L59.222,257.994a14.031,14.031,0,0,1,0-19.15l27.251-28.725a12.35,12.35,0,0,1,18.182,0l77.807,82.6L345.968,120.333a12.366,12.366,0,0,1,18.152,0l27.251,28.756a14.051,14.051,0,0,1,0,19.166Z" transform="translate(0 0)" fill="#fff" stroke="#707070" stroke-width="1"/>
  </g>
</svg>
